<svg width="135" height="135" viewBox="0 0 135 135" fill="none" xmlns="http://www.w3.org/2000/svg">
<g filter="url(#filter0_d_5_9)">
<circle cx="67.5" cy="63.5" r="63.5" fill="#03045E"/>
</g>
<g filter="url(#filter1_d_5_9)">
<path d="M94.4219 42.7812C93.5156 40.8125 92.3281 39.0625 90.8594 37.5312C89.4219 36 87.7969 34.7031 85.9844 33.6406C84.2031 32.5781 82.3125 31.7812 80.3125 31.25C78.3125 30.6875 76.3281 30.4062 74.3594 30.4062C72.2031 30.4062 70.1719 30.7969 68.2656 31.5781C66.3594 32.3281 64.5781 33.375 62.9219 34.7188C61.2969 36.0312 59.8125 37.6094 58.4688 39.4531C57.125 41.2656 55.9375 43.2344 54.9062 45.3594C53.9062 47.4531 53.0781 49.6562 52.4219 51.9688C51.7656 54.2812 51.2969 56.5938 51.0156 58.9062H90.9531C90.2969 60.2188 89.7969 61.6094 89.4531 63.0781C89.1094 64.5156 88.8594 65.8594 88.7031 67.1094C88.5156 68.5781 88.4062 70 88.375 71.375L86.8281 71.6562C86.4219 69.6562 85.9219 68 85.3281 66.6875C84.7344 65.375 83.8438 64.3438 82.6562 63.5938C81.4688 62.8438 79.875 62.3281 77.875 62.0469C75.9062 61.7344 73.3281 61.5781 70.1406 61.5781H50.7344V63.5938C50.7344 66.125 51.0312 68.6094 51.625 71.0469C52.2188 73.4844 53.0625 75.8125 54.1562 78.0312C55.25 80.2188 56.5938 82.2344 58.1875 84.0781C59.7812 85.9219 61.5625 87.5312 63.5312 88.9062C65.5 90.25 67.6562 91.2969 70 92.0469C72.3438 92.7969 74.8281 93.1719 77.4531 93.1719C79.8281 93.1719 81.9219 92.9531 83.7344 92.5156C85.5469 92.0469 87.1094 91.4688 88.4219 90.7812C89.7656 90.0938 90.8906 89.3438 91.7969 88.5312C92.7031 87.6875 93.4531 86.8906 94.0469 86.1406C94.6406 85.3906 95.0781 84.7344 95.3594 84.1719C95.6719 83.5781 95.9062 83.1875 96.0625 83L95.3125 89.6094C94.5938 90.6094 93.5469 91.5781 92.1719 92.5156C90.7969 93.4219 89.1562 94.25 87.25 95C85.375 95.7188 83.2656 96.2969 80.9219 96.7344C78.5781 97.1719 76.0469 97.3906 73.3281 97.3906C68.1094 97.3906 63.1719 96.625 58.5156 95.0938C53.8906 93.5625 49.8125 91.3906 46.2812 88.5781C42.7812 85.7656 39.9844 82.375 37.8906 78.4062C35.8281 74.4062 34.7656 69.9531 34.7031 65.0469C34.7969 59.9844 35.6719 55.4375 37.3281 51.4062C39.0156 47.3438 41.25 43.8125 44.0312 40.8125C46.8438 37.7812 50.1094 35.2812 53.8281 33.3125C57.5469 31.3125 61.5156 29.8281 65.7344 28.8594C67.9531 28.3281 70.5 27.9844 73.375 27.8281C76.25 27.6719 79.1406 27.5938 82.0469 27.5938C84.8594 27.5938 87.5 27.625 89.9688 27.6875C92.4688 27.75 94.5625 27.7812 96.25 27.7812C95.9062 29.25 95.6562 30.5625 95.5 31.7188C95.375 32.8438 95.3125 33.9062 95.3125 34.9062C95.3125 36.3125 95.4219 37.625 95.6406 38.8438C95.8594 40.0312 96.1562 41.3125 96.5312 42.6875L94.4219 42.7812Z" fill="white"/>
</g>
<defs>
<filter id="filter0_d_5_9" x="0" y="0" width="135" height="135" filterUnits="userSpaceOnUse" color-interpolation-filters="sRGB">
<feFlood flood-opacity="0" result="BackgroundImageFix"/>
<feColorMatrix in="SourceAlpha" type="matrix" values="0 0 0 0 0 0 0 0 0 0 0 0 0 0 0 0 0 0 127 0" result="hardAlpha"/>
<feOffset dy="4"/>
<feGaussianBlur stdDeviation="2"/>
<feComposite in2="hardAlpha" operator="out"/>
<feColorMatrix type="matrix" values="0 0 0 0 0 0 0 0 0 0 0 0 0 0 0 0 0 0 0.25 0"/>
<feBlend mode="normal" in2="BackgroundImageFix" result="effect1_dropShadow_5_9"/>
<feBlend mode="normal" in="SourceGraphic" in2="effect1_dropShadow_5_9" result="shape"/>
</filter>
<filter id="filter1_d_5_9" x="31.7031" y="27.5938" width="67.8281" height="77.7969" filterUnits="userSpaceOnUse" color-interpolation-filters="sRGB">
<feFlood flood-opacity="0" result="BackgroundImageFix"/>
<feColorMatrix in="SourceAlpha" type="matrix" values="0 0 0 0 0 0 0 0 0 0 0 0 0 0 0 0 0 0 127 0" result="hardAlpha"/>
<feOffset dy="5"/>
<feGaussianBlur stdDeviation="1.5"/>
<feComposite in2="hardAlpha" operator="out"/>
<feColorMatrix type="matrix" values="0 0 0 0 0 0 0 0 0 0 0 0 0 0 0 0 0 0 0.25 0"/>
<feBlend mode="normal" in2="BackgroundImageFix" result="effect1_dropShadow_5_9"/>
<feBlend mode="normal" in="SourceGraphic" in2="effect1_dropShadow_5_9" result="shape"/>
</filter>
</defs>
</svg>
