<svg width="135" height="135" viewBox="0 0 135 135" fill="none" xmlns="http://www.w3.org/2000/svg">
<g filter="url(#filter0_d_5_9)">
<circle cx="67.5" cy="63.5" r="63.5" fill="black"/>
</g>
<path d="M40.1681 97.288V94.888L42.0881 94.696C44.3281 94.44 46.0241 94.12 47.1761 93.736C48.3921 93.288 49.2241 92.392 49.6721 91.048C50.1201 89.64 50.3441 87.368 50.3441 84.232V41.608C50.3441 38.408 50.1201 36.136 49.6721 34.792C49.2241 33.448 48.3921 32.584 47.1761 32.2C46.0241 31.752 44.3281 31.4 42.0881 31.144L40.1681 30.952V28.552L54.3761 28.84H91.6241L91.8161 35.752L92.5841 44.584H90.2801C89.8321 41.704 89.2241 39.4 88.4561 37.672C87.7521 35.944 86.7281 34.664 85.3841 33.832C84.0401 32.936 82.2161 32.36 79.9121 32.104C77.6721 31.784 74.7601 31.624 71.1761 31.624H58.5041V59.752H69.2561C70.5361 59.752 71.6561 59.464 72.6161 58.888C73.5761 58.248 74.3441 57.096 74.9201 55.432C75.5601 53.768 75.9441 51.368 76.0721 48.232H78.4721L78.1841 61.096L78.4721 75.304H76.0721C76.0721 70.632 75.4961 67.336 74.3441 65.416C73.1921 63.432 71.4961 62.44 69.2561 62.44H58.5041V86.728C58.5041 89.8 59.1761 91.848 60.5201 92.872C61.8641 93.832 64.3601 94.312 68.0081 94.312H76.9361C80.6481 94.312 83.5281 93.896 85.5761 93.064C87.6881 92.232 89.2561 90.568 90.2801 88.072C91.3041 85.512 92.0081 81.768 92.3921 76.84H94.7921L94.1201 88.36L93.8321 97H54.3761L40.1681 97.288Z" fill="white"/>
<defs>
<filter id="filter0_d_5_9" x="0" y="0" width="135" height="135" filterUnits="userSpaceOnUse" color-interpolation-filters="sRGB">
<feFlood flood-opacity="0" result="BackgroundImageFix"/>
<feColorMatrix in="SourceAlpha" type="matrix" values="0 0 0 0 0 0 0 0 0 0 0 0 0 0 0 0 0 0 127 0" result="hardAlpha"/>
<feOffset dy="4"/>
<feGaussianBlur stdDeviation="2"/>
<feComposite in2="hardAlpha" operator="out"/>
<feColorMatrix type="matrix" values="0 0 0 0 0 0 0 0 0 0 0 0 0 0 0 0 0 0 0.25 0"/>
<feBlend mode="normal" in2="BackgroundImageFix" result="effect1_dropShadow_5_9"/>
<feBlend mode="normal" in="SourceGraphic" in2="effect1_dropShadow_5_9" result="shape"/>
</filter>
</defs>
</svg>
