<svg width="405" height="135" viewBox="0 0 405 135" fill="none" xmlns="http://www.w3.org/2000/svg">
<g filter="url(#filter0_d_5_11)">
<circle cx="67.5" cy="63.5" r="63.5" fill="black"/>
</g>
<path d="M40.1681 97.288V94.888L42.0881 94.696C44.3281 94.44 46.0241 94.12 47.1761 93.736C48.3921 93.288 49.2241 92.392 49.6721 91.048C50.1201 89.64 50.3441 87.368 50.3441 84.232V41.608C50.3441 38.408 50.1201 36.136 49.6721 34.792C49.2241 33.448 48.3921 32.584 47.1761 32.2C46.0241 31.752 44.3281 31.4 42.0881 31.144L40.1681 30.952V28.552L54.3761 28.84H91.6241L91.8161 35.752L92.5841 44.584H90.2801C89.8321 41.704 89.2241 39.4 88.4561 37.672C87.7521 35.944 86.7281 34.664 85.3841 33.832C84.0401 32.936 82.2161 32.36 79.9121 32.104C77.6721 31.784 74.7601 31.624 71.1761 31.624H58.5041V59.752H69.2561C70.5361 59.752 71.6561 59.464 72.6161 58.888C73.5761 58.248 74.3441 57.096 74.9201 55.432C75.5601 53.768 75.9441 51.368 76.0721 48.232H78.4721L78.1841 61.096L78.4721 75.304H76.0721C76.0721 70.632 75.4961 67.336 74.3441 65.416C73.1921 63.432 71.4961 62.44 69.2561 62.44H58.5041V86.728C58.5041 89.8 59.1761 91.848 60.5201 92.872C61.8641 93.832 64.3601 94.312 68.0081 94.312H76.9361C80.6481 94.312 83.5281 93.896 85.5761 93.064C87.6881 92.232 89.2561 90.568 90.2801 88.072C91.3041 85.512 92.0081 81.768 92.3921 76.84H94.7921L94.1201 88.36L93.8321 97H54.3761L40.1681 97.288Z" fill="white"/>
<path d="M166.898 46.8V58.16H185.218V68.72H166.898V81.04H187.618V92H153.218V35.84H187.618V46.8H166.898ZM214.659 92.64C210.766 92.64 207.299 91.9733 204.259 90.64C201.219 89.3067 198.819 87.4933 197.059 85.2C195.299 82.8533 194.312 80.24 194.099 77.36H207.619C207.779 78.9067 208.499 80.16 209.779 81.12C211.059 82.08 212.632 82.56 214.499 82.56C216.206 82.56 217.512 82.24 218.419 81.6C219.379 80.9067 219.859 80.0267 219.859 78.96C219.859 77.68 219.192 76.7467 217.859 76.16C216.526 75.52 214.366 74.8267 211.379 74.08C208.179 73.3333 205.512 72.56 203.379 71.76C201.246 70.9067 199.406 69.6 197.859 67.84C196.312 66.0267 195.539 63.6 195.539 60.56C195.539 58 196.232 55.68 197.619 53.6C199.059 51.4667 201.139 49.7867 203.859 48.56C206.632 47.3333 209.912 46.72 213.699 46.72C219.299 46.72 223.699 48.1067 226.899 50.88C230.152 53.6533 232.019 57.3333 232.499 61.92H219.859C219.646 60.3733 218.952 59.1467 217.779 58.24C216.659 57.3333 215.166 56.88 213.299 56.88C211.699 56.88 210.472 57.2 209.619 57.84C208.766 58.4267 208.339 59.2533 208.339 60.32C208.339 61.6 209.006 62.56 210.339 63.2C211.726 63.84 213.859 64.48 216.739 65.12C220.046 65.9733 222.739 66.8267 224.819 67.68C226.899 68.48 228.712 69.8133 230.259 71.68C231.859 73.4933 232.686 75.9467 232.739 79.04C232.739 81.6533 231.992 84 230.499 86.08C229.059 88.1067 226.952 89.7067 224.179 90.88C221.459 92.0533 218.286 92.64 214.659 92.64ZM265.988 80.4V92H259.028C254.068 92 250.202 90.8 247.428 88.4C244.655 85.9467 243.268 81.9733 243.268 76.48V58.72H237.828V47.36H243.268V36.48H256.948V47.36H265.908V58.72H256.948V76.64C256.948 77.9733 257.268 78.9333 257.908 79.52C258.548 80.1067 259.615 80.4 261.108 80.4H265.988ZM270.888 69.6C270.888 65.0133 271.742 60.9867 273.448 57.52C275.208 54.0533 277.582 51.3867 280.568 49.52C283.555 47.6533 286.888 46.72 290.568 46.72C293.715 46.72 296.462 47.36 298.808 48.64C301.208 49.92 303.048 51.6 304.328 53.68V47.36H318.008V92H304.328V85.68C302.995 87.76 301.128 89.44 298.728 90.72C296.382 92 293.635 92.64 290.488 92.64C286.862 92.64 283.555 91.7067 280.568 89.84C277.582 87.92 275.208 85.2267 273.448 81.76C271.742 78.24 270.888 74.1867 270.888 69.6ZM304.328 69.68C304.328 66.2667 303.368 63.5733 301.448 61.6C299.582 59.6267 297.288 58.64 294.568 58.64C291.848 58.64 289.528 59.6267 287.608 61.6C285.742 63.52 284.808 66.1867 284.808 69.6C284.808 73.0133 285.742 75.7333 287.608 77.76C289.528 79.7333 291.848 80.72 294.568 80.72C297.288 80.72 299.582 79.7333 301.448 77.76C303.368 75.7867 304.328 73.0933 304.328 69.68ZM352.785 80.4V92H345.825C340.865 92 336.999 90.8 334.225 88.4C331.452 85.9467 330.065 81.9733 330.065 76.48V58.72H324.625V47.36H330.065V36.48H343.745V47.36H352.705V58.72H343.745V76.64C343.745 77.9733 344.065 78.9333 344.705 79.52C345.345 80.1067 346.412 80.4 347.905 80.4H352.785ZM402.485 68.96C402.485 70.24 402.405 71.5733 402.245 72.96H371.285C371.499 75.7333 372.379 77.8667 373.925 79.36C375.525 80.8 377.472 81.52 379.765 81.52C383.179 81.52 385.552 80.08 386.885 77.2H401.445C400.699 80.1333 399.339 82.7733 397.365 85.12C395.445 87.4667 393.019 89.3067 390.085 90.64C387.152 91.9733 383.872 92.64 380.245 92.64C375.872 92.64 371.979 91.7067 368.565 89.84C365.152 87.9733 362.485 85.3067 360.565 81.84C358.645 78.3733 357.685 74.32 357.685 69.68C357.685 65.04 358.619 60.9867 360.485 57.52C362.405 54.0533 365.072 51.3867 368.485 49.52C371.899 47.6533 375.819 46.72 380.245 46.72C384.565 46.72 388.405 47.6267 391.765 49.44C395.125 51.2533 397.739 53.84 399.605 57.2C401.525 60.56 402.485 64.48 402.485 68.96ZM388.485 65.36C388.485 63.0133 387.685 61.1467 386.085 59.76C384.485 58.3733 382.485 57.68 380.085 57.68C377.792 57.68 375.845 58.3467 374.245 59.68C372.699 61.0133 371.739 62.9067 371.365 65.36H388.485Z" fill="white"/>
<defs>
<filter id="filter0_d_5_11" x="0" y="0" width="135" height="135" filterUnits="userSpaceOnUse" color-interpolation-filters="sRGB">
<feFlood flood-opacity="0" result="BackgroundImageFix"/>
<feColorMatrix in="SourceAlpha" type="matrix" values="0 0 0 0 0 0 0 0 0 0 0 0 0 0 0 0 0 0 127 0" result="hardAlpha"/>
<feOffset dy="4"/>
<feGaussianBlur stdDeviation="2"/>
<feComposite in2="hardAlpha" operator="out"/>
<feColorMatrix type="matrix" values="0 0 0 0 0 0 0 0 0 0 0 0 0 0 0 0 0 0 0.25 0"/>
<feBlend mode="normal" in2="BackgroundImageFix" result="effect1_dropShadow_5_11"/>
<feBlend mode="normal" in="SourceGraphic" in2="effect1_dropShadow_5_11" result="shape"/>
</filter>
</defs>
</svg>
