<svg width="405" height="135" viewBox="0 0 405 135" fill="none" xmlns="http://www.w3.org/2000/svg">
<g filter="url(#filter0_d_5_11)">
<circle cx="67.5" cy="63.5" r="63.5" fill="#1E1E1E"/>
</g>
<g filter="url(#filter1_d_5_11)">
<path d="M94.4219 42.7812C93.5156 40.8125 92.3281 39.0625 90.8594 37.5312C89.4219 36 87.7969 34.7031 85.9844 33.6406C84.2031 32.5781 82.3125 31.7812 80.3125 31.25C78.3125 30.6875 76.3281 30.4062 74.3594 30.4062C72.2031 30.4062 70.1719 30.7969 68.2656 31.5781C66.3594 32.3281 64.5781 33.375 62.9219 34.7188C61.2969 36.0312 59.8125 37.6094 58.4688 39.4531C57.125 41.2656 55.9375 43.2344 54.9062 45.3594C53.9062 47.4531 53.0781 49.6562 52.4219 51.9688C51.7656 54.2812 51.2969 56.5938 51.0156 58.9062H90.9531C90.2969 60.2188 89.7969 61.6094 89.4531 63.0781C89.1094 64.5156 88.8594 65.8594 88.7031 67.1094C88.5156 68.5781 88.4062 70 88.375 71.375L86.8281 71.6562C86.4219 69.6562 85.9219 68 85.3281 66.6875C84.7344 65.375 83.8438 64.3438 82.6562 63.5938C81.4688 62.8438 79.875 62.3281 77.875 62.0469C75.9062 61.7344 73.3281 61.5781 70.1406 61.5781H50.7344V63.5938C50.7344 66.125 51.0312 68.6094 51.625 71.0469C52.2188 73.4844 53.0625 75.8125 54.1562 78.0312C55.25 80.2188 56.5938 82.2344 58.1875 84.0781C59.7812 85.9219 61.5625 87.5312 63.5312 88.9062C65.5 90.25 67.6562 91.2969 70 92.0469C72.3438 92.7969 74.8281 93.1719 77.4531 93.1719C79.8281 93.1719 81.9219 92.9531 83.7344 92.5156C85.5469 92.0469 87.1094 91.4688 88.4219 90.7812C89.7656 90.0938 90.8906 89.3438 91.7969 88.5312C92.7031 87.6875 93.4531 86.8906 94.0469 86.1406C94.6406 85.3906 95.0781 84.7344 95.3594 84.1719C95.6719 83.5781 95.9062 83.1875 96.0625 83L95.3125 89.6094C94.5938 90.6094 93.5469 91.5781 92.1719 92.5156C90.7969 93.4219 89.1562 94.25 87.25 95C85.375 95.7188 83.2656 96.2969 80.9219 96.7344C78.5781 97.1719 76.0469 97.3906 73.3281 97.3906C68.1094 97.3906 63.1719 96.625 58.5156 95.0938C53.8906 93.5625 49.8125 91.3906 46.2812 88.5781C42.7812 85.7656 39.9844 82.375 37.8906 78.4062C35.8281 74.4062 34.7656 69.9531 34.7031 65.0469C34.7969 59.9844 35.6719 55.4375 37.3281 51.4062C39.0156 47.3438 41.25 43.8125 44.0312 40.8125C46.8438 37.7812 50.1094 35.2812 53.8281 33.3125C57.5469 31.3125 61.5156 29.8281 65.7344 28.8594C67.9531 28.3281 70.5 27.9844 73.375 27.8281C76.25 27.6719 79.1406 27.5938 82.0469 27.5938C84.8594 27.5938 87.5 27.625 89.9688 27.6875C92.4688 27.75 94.5625 27.7812 96.25 27.7812C95.9062 29.25 95.6562 30.5625 95.5 31.7188C95.375 32.8438 95.3125 33.9062 95.3125 34.9062C95.3125 36.3125 95.4219 37.625 95.6406 38.8438C95.8594 40.0312 96.1562 41.3125 96.5312 42.6875L94.4219 42.7812Z" fill="white"/>
</g>
<path d="M166.898 46.8V58.16H185.218V68.72H166.898V81.04H187.618V92H153.218V35.84H187.618V46.8H166.898ZM214.659 92.64C210.766 92.64 207.299 91.9733 204.259 90.64C201.219 89.3067 198.819 87.4933 197.059 85.2C195.299 82.8533 194.312 80.24 194.099 77.36H207.619C207.779 78.9067 208.499 80.16 209.779 81.12C211.059 82.08 212.632 82.56 214.499 82.56C216.206 82.56 217.512 82.24 218.419 81.6C219.379 80.9067 219.859 80.0267 219.859 78.96C219.859 77.68 219.192 76.7467 217.859 76.16C216.526 75.52 214.366 74.8267 211.379 74.08C208.179 73.3333 205.512 72.56 203.379 71.76C201.246 70.9067 199.406 69.6 197.859 67.84C196.312 66.0267 195.539 63.6 195.539 60.56C195.539 58 196.232 55.68 197.619 53.6C199.059 51.4667 201.139 49.7867 203.859 48.56C206.632 47.3333 209.912 46.72 213.699 46.72C219.299 46.72 223.699 48.1067 226.899 50.88C230.152 53.6533 232.019 57.3333 232.499 61.92H219.859C219.646 60.3733 218.952 59.1467 217.779 58.24C216.659 57.3333 215.166 56.88 213.299 56.88C211.699 56.88 210.472 57.2 209.619 57.84C208.766 58.4267 208.339 59.2533 208.339 60.32C208.339 61.6 209.006 62.56 210.339 63.2C211.726 63.84 213.859 64.48 216.739 65.12C220.046 65.9733 222.739 66.8267 224.819 67.68C226.899 68.48 228.712 69.8133 230.259 71.68C231.859 73.4933 232.686 75.9467 232.739 79.04C232.739 81.6533 231.992 84 230.499 86.08C229.059 88.1067 226.952 89.7067 224.179 90.88C221.459 92.0533 218.286 92.64 214.659 92.64ZM265.988 80.4V92H259.028C254.068 92 250.202 90.8 247.428 88.4C244.655 85.9467 243.268 81.9733 243.268 76.48V58.72H237.828V47.36H243.268V36.48H256.948V47.36H265.908V58.72H256.948V76.64C256.948 77.9733 257.268 78.9333 257.908 79.52C258.548 80.1067 259.615 80.4 261.108 80.4H265.988ZM270.888 69.6C270.888 65.0133 271.742 60.9867 273.448 57.52C275.208 54.0533 277.582 51.3867 280.568 49.52C283.555 47.6533 286.888 46.72 290.568 46.72C293.715 46.72 296.462 47.36 298.808 48.64C301.208 49.92 303.048 51.6 304.328 53.68V47.36H318.008V92H304.328V85.68C302.995 87.76 301.128 89.44 298.728 90.72C296.382 92 293.635 92.64 290.488 92.64C286.862 92.64 283.555 91.7067 280.568 89.84C277.582 87.92 275.208 85.2267 273.448 81.76C271.742 78.24 270.888 74.1867 270.888 69.6ZM304.328 69.68C304.328 66.2667 303.368 63.5733 301.448 61.6C299.582 59.6267 297.288 58.64 294.568 58.64C291.848 58.64 289.528 59.6267 287.608 61.6C285.742 63.52 284.808 66.1867 284.808 69.6C284.808 73.0133 285.742 75.7333 287.608 77.76C289.528 79.7333 291.848 80.72 294.568 80.72C297.288 80.72 299.582 79.7333 301.448 77.76C303.368 75.7867 304.328 73.0933 304.328 69.68ZM352.785 80.4V92H345.825C340.865 92 336.999 90.8 334.225 88.4C331.452 85.9467 330.065 81.9733 330.065 76.48V58.72H324.625V47.36H330.065V36.48H343.745V47.36H352.705V58.72H343.745V76.64C343.745 77.9733 344.065 78.9333 344.705 79.52C345.345 80.1067 346.412 80.4 347.905 80.4H352.785ZM402.485 68.96C402.485 70.24 402.405 71.5733 402.245 72.96H371.285C371.499 75.7333 372.379 77.8667 373.925 79.36C375.525 80.8 377.472 81.52 379.765 81.52C383.179 81.52 385.552 80.08 386.885 77.2H401.445C400.699 80.1333 399.339 82.7733 397.365 85.12C395.445 87.4667 393.019 89.3067 390.085 90.64C387.152 91.9733 383.872 92.64 380.245 92.64C375.872 92.64 371.979 91.7067 368.565 89.84C365.152 87.9733 362.485 85.3067 360.565 81.84C358.645 78.3733 357.685 74.32 357.685 69.68C357.685 65.04 358.619 60.9867 360.485 57.52C362.405 54.0533 365.072 51.3867 368.485 49.52C371.899 47.6533 375.819 46.72 380.245 46.72C384.565 46.72 388.405 47.6267 391.765 49.44C395.125 51.2533 397.739 53.84 399.605 57.2C401.525 60.56 402.485 64.48 402.485 68.96ZM388.485 65.36C388.485 63.0133 387.685 61.1467 386.085 59.76C384.485 58.3733 382.485 57.68 380.085 57.68C377.792 57.68 375.845 58.3467 374.245 59.68C372.699 61.0133 371.739 62.9067 371.365 65.36H388.485Z" fill="white"/>
<defs>
<filter id="filter0_d_5_11" x="0" y="0" width="135" height="135" filterUnits="userSpaceOnUse" color-interpolation-filters="sRGB">
<feFlood flood-opacity="0" result="BackgroundImageFix"/>
<feColorMatrix in="SourceAlpha" type="matrix" values="0 0 0 0 0 0 0 0 0 0 0 0 0 0 0 0 0 0 127 0" result="hardAlpha"/>
<feOffset dy="4"/>
<feGaussianBlur stdDeviation="2"/>
<feComposite in2="hardAlpha" operator="out"/>
<feColorMatrix type="matrix" values="0 0 0 0 0 0 0 0 0 0 0 0 0 0 0 0 0 0 0.25 0"/>
<feBlend mode="normal" in2="BackgroundImageFix" result="effect1_dropShadow_5_11"/>
<feBlend mode="normal" in="SourceGraphic" in2="effect1_dropShadow_5_11" result="shape"/>
</filter>
<filter id="filter1_d_5_11" x="31.7031" y="27.5938" width="67.8281" height="77.7969" filterUnits="userSpaceOnUse" color-interpolation-filters="sRGB">
<feFlood flood-opacity="0" result="BackgroundImageFix"/>
<feColorMatrix in="SourceAlpha" type="matrix" values="0 0 0 0 0 0 0 0 0 0 0 0 0 0 0 0 0 0 127 0" result="hardAlpha"/>
<feOffset dy="5"/>
<feGaussianBlur stdDeviation="1.5"/>
<feComposite in2="hardAlpha" operator="out"/>
<feColorMatrix type="matrix" values="0 0 0 0 0 0 0 0 0 0 0 0 0 0 0 0 0 0 0.25 0"/>
<feBlend mode="normal" in2="BackgroundImageFix" result="effect1_dropShadow_5_11"/>
<feBlend mode="normal" in="SourceGraphic" in2="effect1_dropShadow_5_11" result="shape"/>
</filter>
</defs>
</svg>
