<svg width="328" height="135" viewBox="0 0 328 135" fill="none" xmlns="http://www.w3.org/2000/svg">
<g filter="url(#filter0_d_3_10)">
<circle cx="59" cy="72" r="55" fill="#160F68"/>
</g>
<path d="M47.05 61.25C47.05 59.72 47.39 58.1333 48.07 56.49C48.75 54.79 49.6567 53.2317 50.79 51.815C51.9233 50.3417 53.1417 49.2367 54.445 48.5L80.2 33.625V42.125L54.445 57V75.7L80.2 60.825V69.325L54.445 84.2V102.9L80.2 88.025V96.525L54.445 111.4C52.4617 112.533 50.7333 112.675 49.26 111.825C47.7867 110.975 47.05 109.417 47.05 107.15V61.25ZM80.2 88.025L54.445 102.9L47.05 98.65L72.805 83.775L80.2 88.025ZM80.2 60.825L54.445 75.7L47.05 71.45L72.805 56.575L80.2 60.825ZM80.2 33.625L54.445 48.5C53.1417 49.2367 51.9233 50.3417 50.79 51.815C49.6567 53.2317 48.75 54.79 48.07 56.49C47.39 58.1333 47.05 59.72 47.05 61.25V107.15C47.05 109.417 47.7867 110.975 49.26 111.825L41.865 107.575C40.3917 106.725 39.655 105.167 39.655 102.9V57C39.655 55.47 39.995 53.8833 40.675 52.24C41.355 50.54 42.2617 48.9817 43.395 47.565C44.5283 46.0917 45.7467 44.9867 47.05 44.25L72.805 29.375L80.2 33.625Z" fill="white"/>
<path d="M136.912 57.84V66.928H151.568V75.376H136.912V85.232H153.488V94H125.968V49.072H153.488V57.84H136.912ZM175.121 94.512C172.006 94.512 169.233 93.9787 166.801 92.912C164.369 91.8453 162.449 90.3947 161.041 88.56C159.633 86.6827 158.844 84.592 158.673 82.288H169.489C169.617 83.5253 170.193 84.528 171.217 85.296C172.241 86.064 173.5 86.448 174.993 86.448C176.358 86.448 177.404 86.192 178.129 85.68C178.897 85.1253 179.281 84.4213 179.281 83.568C179.281 82.544 178.748 81.7973 177.681 81.328C176.614 80.816 174.886 80.2613 172.497 79.664C169.937 79.0667 167.804 78.448 166.097 77.808C164.39 77.1253 162.918 76.08 161.681 74.672C160.444 73.2213 159.825 71.28 159.825 68.848C159.825 66.8 160.38 64.944 161.489 63.28C162.641 61.5733 164.305 60.2293 166.481 59.248C168.7 58.2667 171.324 57.776 174.353 57.776C178.833 57.776 182.353 58.8853 184.913 61.104C187.516 63.3227 189.009 66.2667 189.393 69.936H179.281C179.11 68.6987 178.556 67.7173 177.617 66.992C176.721 66.2667 175.526 65.904 174.033 65.904C172.753 65.904 171.772 66.16 171.089 66.672C170.406 67.1413 170.065 67.8027 170.065 68.656C170.065 69.68 170.598 70.448 171.665 70.96C172.774 71.472 174.481 71.984 176.785 72.496C179.43 73.1787 181.585 73.8613 183.249 74.544C184.913 75.184 186.364 76.2507 187.601 77.744C188.881 79.1947 189.542 81.1573 189.585 83.632C189.585 85.7227 188.988 87.6 187.793 89.264C186.641 90.8853 184.956 92.1653 182.737 93.104C180.561 94.0427 178.022 94.512 175.121 94.512ZM216.185 84.72V94H210.617C206.649 94 203.555 93.04 201.337 91.12C199.118 89.1573 198.009 85.9787 198.009 81.584V67.376H193.657V58.288H198.009V49.584H208.953V58.288H216.121V67.376H208.953V81.712C208.953 82.7787 209.209 83.5467 209.721 84.016C210.233 84.4853 211.086 84.72 212.281 84.72H216.185ZM220.105 76.08C220.105 72.4107 220.787 69.1893 222.153 66.416C223.561 63.6427 225.459 61.5093 227.849 60.016C230.238 58.5227 232.905 57.776 235.849 57.776C238.366 57.776 240.563 58.288 242.441 59.312C244.361 60.336 245.833 61.68 246.857 63.344V58.288H257.801V94H246.857V88.944C245.79 90.608 244.297 91.952 242.377 92.976C240.499 94 238.302 94.512 235.785 94.512C232.883 94.512 230.238 93.7653 227.849 92.272C225.459 90.736 223.561 88.5813 222.153 85.808C220.787 82.992 220.105 79.7493 220.105 76.08ZM246.857 76.144C246.857 73.4133 246.089 71.2587 244.553 69.68C243.059 68.1013 241.225 67.312 239.049 67.312C236.873 67.312 235.017 68.1013 233.481 69.68C231.987 71.216 231.241 73.3493 231.241 76.08C231.241 78.8107 231.987 80.9867 233.481 82.608C235.017 84.1867 236.873 84.976 239.049 84.976C241.225 84.976 243.059 84.1867 244.553 82.608C246.089 81.0293 246.857 78.8747 246.857 76.144ZM285.622 84.72V94H280.054C276.086 94 272.993 93.04 270.774 91.12C268.555 89.1573 267.446 85.9787 267.446 81.584V67.376H263.094V58.288H267.446V49.584H278.39V58.288H285.558V67.376H278.39V81.712C278.39 82.7787 278.646 83.5467 279.158 84.016C279.67 84.4853 280.523 84.72 281.718 84.72H285.622ZM325.382 75.568C325.382 76.592 325.318 77.6587 325.19 78.768H300.422C300.593 80.9867 301.297 82.6933 302.534 83.888C303.814 85.04 305.371 85.616 307.206 85.616C309.937 85.616 311.835 84.464 312.902 82.16H324.55C323.953 84.5067 322.865 86.6187 321.286 88.496C319.75 90.3733 317.809 91.8453 315.462 92.912C313.115 93.9787 310.491 94.512 307.59 94.512C304.091 94.512 300.977 93.7653 298.246 92.272C295.515 90.7787 293.382 88.6453 291.846 85.872C290.31 83.0987 289.542 79.856 289.542 76.144C289.542 72.432 290.289 69.1893 291.782 66.416C293.318 63.6427 295.451 61.5093 298.182 60.016C300.913 58.5227 304.049 57.776 307.59 57.776C311.046 57.776 314.118 58.5013 316.806 59.952C319.494 61.4027 321.585 63.472 323.078 66.16C324.614 68.848 325.382 71.984 325.382 75.568ZM314.182 72.688C314.182 70.8107 313.542 69.3173 312.262 68.208C310.982 67.0987 309.382 66.544 307.462 66.544C305.627 66.544 304.07 67.0773 302.79 68.144C301.553 69.2107 300.785 70.7253 300.486 72.688H314.182Z" fill="white"/>
<defs>
<filter id="filter0_d_3_10" x="0" y="17" width="118" height="118" filterUnits="userSpaceOnUse" color-interpolation-filters="sRGB">
<feFlood flood-opacity="0" result="BackgroundImageFix"/>
<feColorMatrix in="SourceAlpha" type="matrix" values="0 0 0 0 0 0 0 0 0 0 0 0 0 0 0 0 0 0 127 0" result="hardAlpha"/>
<feOffset dy="4"/>
<feGaussianBlur stdDeviation="2"/>
<feComposite in2="hardAlpha" operator="out"/>
<feColorMatrix type="matrix" values="0 0 0 0 0 0 0 0 0 0 0 0 0 0 0 0 0 0 0.25 0"/>
<feBlend mode="normal" in2="BackgroundImageFix" result="effect1_dropShadow_3_10"/>
<feBlend mode="normal" in="SourceGraphic" in2="effect1_dropShadow_3_10" result="shape"/>
</filter>
</defs>
</svg>
